<?xml version="1.0" encoding="UTF-8"?>
<svg width="273px" height="206px" viewBox="0 0 273 206" version="1.1" xmlns="http://www.w3.org/2000/svg" xmlns:xlink="http://www.w3.org/1999/xlink">
    <!-- Generator: Sketch 51.1 (57501) - http://www.bohemiancoding.com/sketch -->
    <title>flat_logo</title>
    <desc>Created with Sketch.</desc>
    <defs/>
    <g id="Symbols" stroke="none" stroke-width="1" fill="none" fill-rule="evenodd">
        <g id="Footer" transform="translate(-1090.000000, -137.000000)">
            <g id="Group-21" transform="translate(1090.000000, 137.000000)">
                <g id="flat_logo">
                    <path d="M62.7265581,148.999916 L58.1574958,148.999916 C57.5393071,149.006287 56.9763601,148.649315 56.7248737,148.091472 L50.0216171,136.823268 C49.8860191,136.590333 49.7798989,136.555393 49.6796743,136.555393 C49.5794497,136.555393 49.508703,136.625273 49.508703,136.858208 L49.508703,148.33023 C49.5054667,148.701027 49.2002266,148.99993 48.8248175,148.999916 L43.7133633,148.999916 C43.3306141,149.000239 43.0158159,148.702145 43,148.324406 L43,125.246426 C43.0094316,124.564323 43.565247,124.012737 44.2557552,124.000226 L48.7717574,124.000226 C49.3842771,124.024191 49.9218291,124.41035 50.1336328,124.978551 L57.0255474,136.590333 C57.1611454,136.823268 57.2318922,136.893148 57.3321168,136.893148 C57.4323414,136.893148 57.5030882,136.858208 57.5030882,136.590333 L57.5030882,124.675736 C57.5030264,124.493511 57.5775013,124.318991 57.7096058,124.191794 C57.8417103,124.064597 58.0202379,123.995514 58.2046603,124.000226 L63.3161145,124.000226 C63.6938141,124.000226 64,124.302662 64,124.675736 L64,147.75954 C63.9871928,148.446073 63.4217141,148.996868 62.7265581,148.999916 Z" id="Shape" fill="#FFFFFF" fill-rule="nonzero"/>
                    <path d="M88.4743306,148.998479 L82.6182242,148.998479 C82.2720717,148.9674 81.9927356,148.705597 81.9429674,148.365607 L80.9999363,143.762895 L75.0215851,143.762895 L74.0785541,148.365607 C74.0287858,148.705597 73.7494498,148.9674 73.4032973,148.998479 L67.5821179,148.998479 C67.4326252,149.009637 67.2851444,148.959026 67.1748149,148.858704 C67.0644853,148.758383 67.0011864,148.617335 67,148.469168 C67,148.400127 67.0291059,148.37136 67.0291059,148.302319 L71.5405199,127.958332 C72.2798097,124.667393 74.8003803,124 77.9962078,124 C81.1920352,124 83.7126059,124.66164 84.4577169,127.958332 L88.9633097,148.302319 C88.9716976,148.358553 88.9833593,148.414261 88.9982368,148.469168 C89.0103646,148.61085 88.9595011,148.750734 88.8588979,148.852375 C88.7582947,148.954017 88.6179143,149.00735 88.4743306,148.998479 Z M78.3804056,130.012293 C78.3163727,129.713116 78.3163727,129.546268 78.0136713,129.546268 C77.71097,129.546268 77.71097,129.713116 77.6411158,130.012293 L75.9937221,138.458269 L80.0277994,138.458269 L78.3804056,130.012293 Z" id="Shape" fill="#FFFFFF" fill-rule="nonzero"/>
                    <path d="M114.95857,124.670955 L110.450519,145.00937 C109.711781,148.298477 107.222173,149 103.993827,149 C100.765481,149 98.2816905,148.304227 97.537135,145.00937 L93.034901,124.670955 C93.034901,124.601953 93,124.573202 93,124.5042 C93.0021762,124.358774 93.0668434,124.221133 93.1778425,124.125671 C93.2888417,124.030208 93.4356868,123.985942 93.581684,124.003934 L99.3985237,124.003934 C99.7547016,124.024242 100.048066,124.287881 100.102361,124.636454 L103.633183,143.037055 C103.697168,143.336065 103.732069,143.50282 103.999644,143.50282 C104.267219,143.50282 104.337021,143.336065 104.406823,143.037055 L107.937644,124.636454 C107.974404,124.290172 108.260645,124.021847 108.612398,124.003934 L114.464139,124.003934 C114.605136,123.988521 114.745856,124.035187 114.848925,124.131539 C114.951995,124.22789 115.006984,124.364175 114.999288,124.5042 C114.982706,124.559025 114.969114,124.61469 114.95857,124.670955 Z" id="Shape" fill="#FFFFFF" fill-rule="nonzero"/>
                    <path d="M129.5,150 C123.823844,150 119,147.103245 119,138.79056 L119,135.250737 C119,126.932153 123.823844,124 129.5,124 C135.176156,124 140,126.949853 140,135.250737 L140,138.79056 C140,147.103245 135.182074,150 129.5,150 Z M132.956595,135.250737 C132.956595,131.60472 131.897125,130.100295 129.5,130.100295 C127.102875,130.100295 126.049324,131.59882 126.049324,135.250737 L126.049324,138.79056 C126.049324,142.436578 127.108794,143.905605 129.5,143.905605 C131.891206,143.905605 132.956595,142.436578 132.956595,138.79056 L132.956595,135.250737 Z" id="Shape" fill="#FFFFFF" fill-rule="nonzero"/>
                    <path d="M152.907265,149.999321 C150.290767,150.013149 147.677425,149.815817 145.092735,149.409249 C144.342587,149.273533 144,148.996199 144,148.075688 L144,125.924408 C144,124.997996 144.33668,124.744265 145.092735,124.590847 C147.677311,124.183303 150.290732,123.985965 152.907265,124.000776 C159.664501,124.000776 164,127.446792 164,135.11772 L164,138.870574 C164,146.553304 159.699941,149.999321 152.907265,149.999321 Z M157.006497,135.129522 C157.006497,131.034426 155.642056,129.948695 152.907265,129.948695 C152.499705,129.948695 151.200236,129.984099 150.963969,129.984099 L150.963969,144.069103 C151.200236,144.098607 152.464265,144.098607 152.907265,144.098607 C155.642056,144.098607 157.006497,143.006975 157.006497,138.882376 L157.006497,135.129522 Z" id="Shape" fill="#FFFFFF" fill-rule="nonzero"/>
                    <path d="M187.47447,148.998479 L181.619912,148.998479 C181.273851,148.9674 180.994589,148.705597 180.944834,148.365607 L180.007872,143.762895 L174.019463,143.762895 L173.076682,148.365607 C173.026927,148.705597 172.747664,148.9674 172.401603,148.998479 L166.581964,148.998479 C166.432511,149.009637 166.285069,148.959026 166.174769,148.858704 C166.064468,148.758383 166.001186,148.617335 166,148.469168 C166,148.400127 166.034918,148.37136 166.034918,148.302319 L170.539319,127.958332 C171.278413,124.667393 173.804137,124 176.999119,124 C180.194101,124 182.714005,124.66164 183.458918,127.958332 L187.963319,148.302319 C187.971718,148.35855 187.983376,148.414258 187.998237,148.469168 C188.010362,148.61085 187.959512,148.750734 187.858935,148.852375 C187.758359,148.954017 187.618015,149.00735 187.47447,148.998479 Z M177.383215,130.012293 C177.319199,129.713116 177.319199,129.546268 177.016578,129.546268 C176.713956,129.546268 176.713956,129.713116 176.644121,130.012293 L174.997163,138.458269 L179.035992,138.458269 L177.383215,130.012293 Z" id="Shape" fill="#FFFFFF" fill-rule="nonzero"/>
                    <path d="M212.911049,124.705363 L207.876563,136.30582 C207.153115,137.952223 206.370368,138.824876 205.439373,139.21466 L205.439373,148.325149 C205.439373,148.697859 205.131404,149 204.751504,149 L199.165537,149 C198.986737,148.998598 198.816213,148.925892 198.693178,148.798602 C198.570144,148.671312 198.505188,148.500392 198.513248,148.325149 L198.513248,139.197207 C197.588183,138.824876 196.799506,137.952223 196.081988,136.288367 L191.065291,124.705363 C191.027666,124.62062 191.005584,124.530025 191.000062,124.43775 C190.997979,124.316251 191.04833,124.199548 191.138691,124.116438 C191.229051,124.033328 191.351004,123.991554 191.474454,124.001424 L197.677132,124.001424 C198.021066,124.001424 198.222683,124.303943 198.365,124.641369 L201.650166,133.554056 C201.750974,133.82167 201.887362,133.891482 201.9941,133.891482 C202.100838,133.891482 202.231296,133.827487 202.338034,133.554056 L205.62913,124.641369 C205.765518,124.303943 205.973064,124.001424 206.311069,124.001424 L212.519676,124.001424 C212.643662,123.991661 212.76615,124.033283 212.857419,124.116192 C212.948688,124.199101 213.000396,124.315719 212.999998,124.43775 C212.986643,124.531397 212.956531,124.621994 212.911049,124.705363 Z" id="Shape" fill="#FFFFFF" fill-rule="nonzero"/>
                    <path d="M234.491859,148.998479 L228.641556,148.998479 C228.294467,148.969453 228.014041,148.706629 227.966297,148.365607 L227.023263,143.762895 L221.039073,143.762895 L220.096039,148.365607 C220.046843,148.712565 219.757142,148.977236 219.403316,148.998479 L213.58212,148.998479 C213.432626,149.009637 213.285145,148.959026 213.174815,148.858704 C213.064485,148.758383 213.001186,148.617335 213,148.469168 C213,148.400127 213.034927,148.37136 213.034927,148.302319 L217.540533,127.958332 C218.279825,124.667393 220.800404,124 224.002062,124 C227.20372,124 229.718477,124.66164 230.457769,127.958332 L234.963375,148.302319 C234.971575,148.358585 234.983239,148.414305 234.998303,148.469168 C235.009938,148.607719 234.961357,148.744617 234.864707,148.845631 C234.768057,148.946645 234.632474,149.002227 234.491859,148.998479 Z M224.403725,130.012293 C224.33387,129.713116 224.33387,129.546268 224.036989,129.546268 C223.740108,129.546268 223.734287,129.713116 223.664433,130.012293 L222.017034,138.458269 L226.056944,138.458269 L224.403725,130.012293 Z" id="Shape" fill="#FFFFFF" fill-rule="nonzero"/>
                    <path d="M8.66122961,175.030514 L5.68569636,175.030514 L5.68569636,185.651947 C5.68569636,185.744256 5.65000458,185.832785 5.58647281,185.898057 C5.52294104,185.96333 5.43677347,186 5.34692597,186 L3.65307403,186 C3.46597631,186 3.31430364,185.844171 3.31430364,185.651947 L3.31430364,175.030514 L0.338770389,175.030514 C0.252046266,175.036905 0.166587546,175.006323 0.102494251,174.945961 C0.0384009551,174.885599 0.00132980796,174.800784 0,174.711465 L0,173.330853 C0.00146238093,173.240584 0.0381741148,173.154706 0.101882366,173.092525 C0.165590617,173.030343 0.25094955,172.997076 0.338770389,173.000202 L8.66122961,173.000202 C8.74905045,172.997076 8.83440938,173.030343 8.89811763,173.092525 C8.96182589,173.154706 8.99853762,173.240584 9,173.330853 L9,174.711465 C8.99867019,174.800784 8.96159904,174.885599 8.89750575,174.945961 C8.83341245,175.006323 8.74795373,175.036905 8.66122961,175.030514 Z" id="Shape" fill="#FFFFFF" fill-rule="nonzero"/>
                    <path d="M21.6402819,185.999951 L19.8714229,185.999951 C19.7775968,185.999951 19.6876135,185.963297 19.6212684,185.898054 C19.5549233,185.832811 19.5176511,185.744322 19.5176511,185.652054 L19.5176511,180.300239 L14.4764027,180.300239 L14.4764027,185.652054 C14.4764027,185.744322 14.4391304,185.832811 14.3727853,185.898054 C14.3064403,185.963297 14.216457,185.999951 14.1226309,185.999951 L12.3537718,185.999951 C12.158389,185.999951 12,185.844192 12,185.652054 L12,173.330704 C12.0015271,173.240476 12.0398645,173.154636 12.1063939,173.092483 C12.1729233,173.03033 12.2620621,172.997078 12.3537718,173.000202 L14.1226309,173.000202 C14.2143406,172.997078 14.3034794,173.03033 14.3700088,173.092483 C14.4365382,173.154636 14.4748756,173.240476 14.4764027,173.330704 L14.4764027,178.160673 L19.5235473,178.160673 L19.5235473,173.330704 C19.5250744,173.240476 19.5634118,173.154636 19.6299412,173.092483 C19.6964706,173.03033 19.7856093,172.997078 19.8773191,173.000202 L21.6461781,173.000202 C21.7378879,172.997078 21.8270267,173.03033 21.893556,173.092483 C21.9600854,173.154636 21.9984228,173.240476 21.99995,173.330704 L21.99995,185.646256 C22.0015616,185.740538 21.9641859,185.831426 21.8963826,185.898103 C21.8285792,185.964781 21.7361568,186.001536 21.6402819,185.999951 Z" id="Shape" fill="#FFFFFF" fill-rule="nonzero"/>
                    <path d="M31.6849212,185.755462 C30.6919059,185.944168 29.6837876,186.024008 28.675919,185.993766 C26.6174044,185.993766 25,185.392333 25,182.487302 L25,176.512698 C25,173.601993 26.5753938,173.006234 28.675919,173.006234 C29.6837876,172.975992 30.6919059,173.055832 31.6849212,173.244538 C31.9212303,173.278581 32,173.363689 32,173.601993 L32,174.697053 C31.9971891,174.883797 31.8577567,175.034449 31.6849212,175.037487 L28.4553638,175.037487 C27.5363841,175.037487 27.2055514,175.37792 27.2055514,176.507024 L27.2055514,178.356711 L31.495874,178.356711 C31.6698872,178.356711 31.8109527,178.509129 31.8109527,178.697145 L31.8109527,179.928379 C31.8109762,180.117334 31.6707332,180.271388 31.495874,180.274486 L27.2003001,180.274486 L27.2003001,182.481628 C27.2003001,183.616406 27.5311328,183.951166 28.4501125,183.951166 L31.6796699,183.951166 C31.8525054,183.954203 31.9919378,184.104855 31.9947487,184.291599 L31.9947487,185.386659 C32,185.636311 31.9264816,185.721419 31.6849212,185.755462 Z" id="Shape" fill="#FFFFFF" fill-rule="nonzero"/>
                    <path d="M49.6215054,185.727278 C48.7237149,185.912405 47.8087939,186.003772 46.8917563,185.999881 C44.8157706,185.999881 42,184.98898 42,180.757965 L42,178.242073 C42,173.942907 44.8157706,173.000157 46.8917563,173.000157 C47.8088224,172.995677 48.7238056,173.08705 49.6215054,173.272759 C49.8451613,173.34091 50,173.426098 50,173.664625 L50,174.800468 C50,175.00492 49.9139785,175.163938 49.655914,175.163938 L49.6215054,175.163938 C49.0136201,175.112825 47.8379928,175.027637 46.9261649,175.027637 C45.4752688,175.027637 44.4200717,175.80001 44.4200717,178.230714 L44.4200717,180.757965 C44.4200717,183.137556 45.4752688,183.961042 46.9261649,183.961042 C47.8437276,183.961042 49.0193548,183.875854 49.6215054,183.824741 L49.655914,183.824741 C49.9139785,183.824741 50,183.97808 50,184.182532 L50,185.318375 C50,185.57394 49.8451613,185.659128 49.6215054,185.727278 Z" id="Shape" fill="#FFFFFF" fill-rule="nonzero"/>
                    <path d="M61.6641208,185.999116 L59.7508169,185.999116 C59.5817636,185.984617 59.4427392,185.865697 59.4089413,185.706679 L58.5752446,182.421068 L54.4187567,182.421068 L53.6030535,185.700945 C53.5692555,185.859963 53.4302312,185.978883 53.2611778,185.993382 L51.3238826,185.993382 C51.2396858,185.998125 51.1571767,185.969422 51.0958583,185.914057 C51.03454,185.858692 50.9998544,185.781578 51.0000005,185.700945 C51.0016082,185.672295 51.0016082,185.643584 51.0000005,185.614934 L53.9629225,174.76611 C54.3065351,173.715376 55.3244793,173 56.4760083,173 C57.6275373,173 58.6454815,173.715376 58.989094,174.76611 L61.9999986,185.614934 C61.9982803,185.643581 61.9982803,185.672298 61.9999986,185.700945 C62.0002566,185.784164 61.9641248,185.863699 61.900337,185.920326 C61.8365492,185.976953 61.7509103,186.005517 61.6641208,185.999116 Z M56.781897,175.310844 C56.7279166,175.104419 56.6739363,175.03561 56.4940017,175.03561 C56.3140672,175.03561 56.2600868,175.104419 56.2061065,175.310844 L54.90458,180.47149 L58.0834235,180.47149 L56.781897,175.310844 Z" id="Shape" fill="#FFFFFF" fill-rule="nonzero"/>
                    <path d="M75.6874523,185.994835 L73.9829144,185.994835 C73.8175651,185.968232 73.6993344,185.81747 73.7101884,185.647069 L73.7101884,177.532543 C73.7101884,177.410825 73.7101884,177.35866 73.6590523,177.35866 C73.6079161,177.35866 73.6079161,177.410825 73.5738254,177.46299 L71.9033783,180.778353 C71.7830012,180.977441 71.5638567,181.091453 71.335199,181.073954 L69.6306611,181.073954 C69.4022664,181.090128 69.1837559,180.976446 69.0624819,180.778353 L67.4033984,177.439805 C67.3693076,177.38764 67.3352168,177.335476 67.3181715,177.335476 C67.3011261,177.335476 67.2670353,177.38764 67.2670353,177.509358 L67.2670353,185.623885 C67.2778893,185.794286 67.1596586,185.945047 66.9943093,185.97165 L65.2897714,185.97165 C65.2166585,185.979815 65.1435571,185.956176 65.0884068,185.906535 C65.0332564,185.856894 65.0011621,185.785846 65,185.710826 L65,173.701327 C65,173.313995 65.3078029,173 65.6874969,173 L67.0908998,173 C67.3632293,173.005436 67.6093521,173.16684 67.7272606,173.417319 L70.3124763,178.76711 C70.3977032,178.923604 70.4317939,179.010546 70.4999754,179.010546 C70.568157,179.010546 70.6022477,178.923604 70.6874746,178.76711 L73.2726903,173.417319 C73.3905988,173.16684 73.6367216,173.005436 73.9090511,173 L75.312454,173 C75.692148,173 75.9999509,173.313995 75.9999509,173.701327 L75.9999509,185.728215 C76.0014841,185.808968 75.9670501,185.886078 75.9063159,185.937896 C75.8455817,185.989713 75.7650952,186.010652 75.6874523,185.994835 Z" id="Shape" fill="#FFFFFF" fill-rule="nonzero"/>
                    <path d="M82.954458,181.204038 C82.5041693,181.204038 81.7998717,181.152406 81.4073124,181.135196 L81.4073124,185.655792 C81.410423,185.745023 81.3773163,185.831752 81.3154347,185.896482 C81.2535531,185.961213 81.1680892,185.998514 81.0782553,186 L79.3463759,186 C79.2545113,186 79.1664092,185.963735 79.1014511,185.899184 C79.0364931,185.834632 79,185.747082 79,185.655792 L79,173.746202 C79,173.396257 79.2078255,173.275784 79.5772931,173.224153 C80.7076986,173.06845 81.8479031,172.993679 82.9890956,173.000418 C85.6677357,173.000418 88,173.935516 88,177.016176 L88,177.171069 C87.9595895,180.217309 85.6330981,181.204038 82.954458,181.204038 Z M85.563823,176.998965 C85.563823,175.547556 84.6921103,174.991086 82.954458,174.991086 C82.5907633,174.991086 81.7190507,175.025507 81.4073124,175.059928 L81.4073124,179.178948 C81.6844131,179.178948 82.6600385,179.230579 82.954458,179.230579 C84.8306607,179.230579 85.563823,178.536427 85.563823,177.153859 L85.563823,176.998965 Z" id="Shape" fill="#FFFFFF" fill-rule="nonzero"/>
                    <path d="M96.4918724,186 C93.8639374,186 92,184.789539 92,181.100787 L92,173.327445 C92.0013561,173.237134 92.0373313,173.151287 92.0996636,173.08962 C92.1619959,173.027953 92.2453286,172.995765 92.3305238,173.000448 L93.9560506,173.000448 C94.040329,172.997357 94.1222448,173.030256 94.1833832,173.09175 C94.2445217,173.153245 94.2797525,173.238173 94.2811559,173.327445 L94.2811559,181.100787 C94.2811559,183.07424 94.7363034,184.009336 96.5027092,184.009336 C98.269115,184.009336 98.7242625,183.07424 98.7242625,181.100787 L98.7242625,173.327445 C98.7256659,173.238173 98.7608968,173.153245 98.8220352,173.09175 C98.8831737,173.030256 98.9650895,172.997357 99.0493679,173.000448 L100.674895,173.000448 C100.759173,172.997357 100.841089,173.030256 100.902227,173.09175 C100.963366,173.153245 100.998597,173.238173 101,173.327445 L101,181.100787 C100.983745,184.789539 99.1252258,186 96.4918724,186 Z" id="Shape" fill="#FFFFFF" fill-rule="nonzero"/>
                    <path d="M108.626775,185.998468 C107.636267,186.01401 106.647361,185.911281 105.68002,185.692355 C105.507999,185.673235 105.374696,185.529359 105.364889,185.352229 L105.364889,184.122108 C105.363406,184.035433 105.395951,183.951783 105.455211,183.889955 C105.514471,183.828126 105.595476,183.793306 105.68002,183.79332 L105.713192,183.79332 C106.376626,183.878351 108.04627,183.963383 108.659947,183.963383 C110.141617,183.963383 110.594964,183.396507 110.594964,182.427149 C110.594964,181.758235 110.279833,181.418109 109.179637,180.72652 L106.968189,179.377355 C105.420175,178.436341 105,177.444308 105,176.2482 C105,174.366171 106.067024,173 109.163051,173 C110.236703,173.006879 111.307747,173.109301 112.364122,173.306113 C112.527001,173.325107 112.652969,173.461443 112.662668,173.629232 L112.662668,174.893366 C112.665652,174.972516 112.637444,175.049567 112.584402,175.107154 C112.53136,175.16474 112.457946,175.198015 112.380708,175.199479 L112.347537,175.199479 C111.241812,175.097441 110.136088,175.029416 109.063536,175.029416 C107.830654,175.029416 107.316492,175.47158 107.316492,176.242531 C107.316492,176.809407 107.598452,177.149533 108.682061,177.761759 L110.683422,178.895511 C112.518924,179.938563 112.999914,181.032634 112.999914,182.381798 C113.010971,184.161789 111.960533,185.998468 108.626775,185.998468 Z" id="Shape" fill="#FFFFFF" fill-rule="nonzero"/>
                    <path d="M126,186 C123.089639,186 121,184.421145 121,180.655745 L121,178.344255 C121,174.573176 123.107101,173 126,173 C128.892899,173 131,174.578855 131,178.344255 L131,180.655745 C131,184.421145 128.892899,186 126,186 Z M128.543655,178.338576 C128.543655,176.066841 127.717113,175.067278 126,175.067278 C124.282887,175.067278 123.456345,176.0782 123.456345,178.338576 L123.456345,180.650066 C123.456345,182.9218 124.282887,183.921363 126,183.921363 C127.717113,183.921363 128.543655,182.910441 128.543655,180.650066 L128.543655,178.338576 Z" id="Shape" fill="#FFFFFF" fill-rule="nonzero"/>
                    <path d="M140.684879,175.065755 L137.455342,175.065755 C136.536368,175.065755 136.205538,175.40996 136.205538,176.551573 L136.205538,178.421754 L140.495833,178.421754 C140.669845,178.421754 140.81091,178.575859 140.81091,178.765959 L140.81091,180.010833 C140.810934,180.201882 140.670691,180.357643 140.495833,180.360775 L136.205538,180.360775 L136.205538,185.655795 C136.205538,185.845894 136.064473,186 135.890461,186 L134.315077,186 C134.141065,186 134,185.845894 134,185.655795 L134,176.551573 C134,173.608621 135.575384,173.006262 137.675896,173.006262 C138.683756,172.975802 139.691857,173.056525 140.684879,173.247205 C140.921187,173.281626 140.999956,173.367677 140.999956,173.608621 L140.999956,174.715813 C141.001364,174.808092 140.968791,174.897123 140.90955,174.96292 C140.850308,175.028717 140.769361,175.065768 140.684879,175.065755 Z" id="Shape" fill="#FFFFFF" fill-rule="nonzero"/>
                    <path d="M154.954458,181.204039 C154.504169,181.204039 153.799872,181.152408 153.407312,181.135198 L153.407312,185.655792 C153.410423,185.745023 153.377316,185.831752 153.315435,185.896482 C153.253553,185.961213 153.168089,185.998514 153.078255,186 L151.346376,186 C151.254511,186 151.166409,185.963735 151.101451,185.899184 C151.036493,185.834632 151,185.747082 151,185.655792 L151,173.746206 C151,173.396261 151.207826,173.275789 151.577293,173.224158 C152.707695,173.068415 153.847902,172.993644 154.989096,173.000423 C157.667736,173.000423 160,173.93552 160,177.016179 L160,177.171073 C159.971135,180.217311 157.638871,181.204039 154.954458,181.204039 Z M157.563823,176.998969 C157.563823,175.54756 156.69211,174.99109 154.954458,174.99109 C154.590763,174.99109 153.719051,175.025511 153.407312,175.059932 L153.407312,179.178951 C153.684413,179.178951 154.660038,179.230582 154.954458,179.230582 C156.830661,179.230582 157.563823,178.53643 157.563823,177.153862 L157.563823,176.998969 Z" id="Shape" fill="#FFFFFF" fill-rule="nonzero"/>
                    <path d="M167,186 C164.089639,186 162,184.421145 162,180.655745 L162,178.344255 C162,174.573176 164.107101,173 167,173 C169.892899,173 172,174.578855 172,178.344255 L172,180.655745 C171.976717,184.421145 169.898719,186 167,186 Z M169.543655,178.338576 C169.543655,176.066841 168.717113,175.067278 167,175.067278 C165.282887,175.067278 164.456345,176.0782 164.456345,178.338576 L164.456345,180.650066 C164.456345,182.9218 165.282887,183.921363 167,183.921363 C168.717113,183.921363 169.543655,182.910441 169.543655,180.650066 L169.543655,178.338576 Z" id="Shape" fill="#FFFFFF" fill-rule="nonzero"/>
                    <path d="M178.626775,185.998458 C177.636265,186.014052 176.647353,185.911322 175.68002,185.692345 C175.509062,185.671041 175.376878,185.528373 175.364889,185.35222 L175.364889,184.1221 C175.363406,184.035425 175.395951,183.951775 175.455211,183.889947 C175.514471,183.828118 175.595476,183.793299 175.68002,183.793312 L175.713192,183.793312 C176.376626,183.878343 178.04627,183.963375 178.659947,183.963375 C180.141617,183.963375 180.594964,183.396499 180.594964,182.427142 C180.594964,181.758228 180.279833,181.418103 179.179637,180.726515 L176.968189,179.377351 C175.420175,178.436337 175,177.444305 175,176.248197 C175,174.36617 176.067024,173 179.163051,173 C180.236704,173.006851 181.30775,173.109273 182.364122,173.306113 C182.527001,173.325107 182.652969,173.461442 182.662668,173.629232 L182.662668,174.893365 C182.665652,174.972515 182.637444,175.049566 182.584402,175.107152 C182.53136,175.164738 182.457946,175.198013 182.380708,175.199477 L182.347537,175.199477 C181.241812,175.09744 180.136088,175.029415 179.063536,175.029415 C177.830654,175.029415 177.316492,175.471578 177.316492,176.242529 C177.316492,176.809404 177.598452,177.14953 178.682061,177.761755 L180.683422,178.895507 C182.518924,179.938558 182.999914,181.032628 182.999914,182.381792 C183.010971,184.161781 181.960533,185.998458 178.626775,185.998458 Z" id="Shape" fill="#FFFFFF" fill-rule="nonzero"/>
                    <path d="M189.611838,185.998458 C188.625407,186.014052 187.640568,185.911322 186.67722,185.692345 C186.506966,185.671041 186.375326,185.528373 186.363386,185.35222 L186.363386,184.1221 C186.361909,184.035425 186.39432,183.951775 186.453336,183.889947 C186.512352,183.828118 186.593023,183.793299 186.67722,183.793312 L186.710255,183.793312 C187.370957,183.878343 189.033723,183.963375 189.644873,183.963375 C191.12044,183.963375 191.57192,183.396499 191.57192,182.427142 C191.57192,181.758228 191.258087,181.418103 190.162423,180.726515 L187.960083,179.377351 C186.418445,178.436337 186,177.444305 186,176.248197 C186,174.36617 187.062629,173 190.145905,173 C191.215135,173.006879 192.281767,173.109301 193.333792,173.306113 C193.496,173.325107 193.621449,173.461442 193.631108,173.629232 L193.631108,174.893365 C193.63408,174.972515 193.605988,175.049566 193.553165,175.107152 C193.500341,175.164738 193.42723,175.198013 193.35031,175.199477 C192.24914,175.09744 191.14797,175.029415 190.079835,175.029415 C188.85203,175.029415 188.339986,175.471578 188.339986,176.242529 C188.339986,176.809404 188.620785,177.14953 189.699931,177.761755 L191.693049,178.895507 C193.520991,179.938558 194,181.032628 194,182.381792 C193.972471,184.161781 192.926359,185.998458 189.611838,185.998458 Z" id="Shape" fill="#FFFFFF" fill-rule="nonzero"/>
                    <path d="M199.571377,186 L197.428563,186 C197.314901,186 197.205894,185.963347 197.125523,185.898103 C197.045152,185.832859 197,185.74437 197,185.652102 L197,173.330705 C197.00185,173.240476 197.048292,173.154637 197.128887,173.092483 C197.209481,173.03033 197.317465,172.997078 197.428563,173.000202 L199.571377,173.000202 C199.682476,172.997078 199.790459,173.03033 199.871054,173.092483 C199.951648,173.154637 199.99809,173.240476 199.99994,173.330705 L199.99994,185.646303 C200.001856,185.739572 199.95755,185.829558 199.876971,185.896062 C199.796391,185.962565 199.686288,186.000013 199.571377,186 Z" id="Shape" fill="#FFFFFF" fill-rule="nonzero"/>
                    <path d="M206.791667,185.996412 C205.799446,186.016279 204.807291,185.953609 203.825513,185.809052 C203.256194,185.706856 203,185.519495 203,184.883606 L203,174.096201 C203,173.477344 203.222035,173.255918 203.774274,173.170755 C204.718326,173.051343 205.669275,172.994442 206.620872,173.000427 C209.729356,173.000427 211.909849,173.891808 211.909849,176.475107 L211.909849,176.815762 C211.968974,177.920282 211.34298,178.947974 210.332834,179.40474 C211.393037,179.824377 212.063408,180.875255 211.995247,182.01075 L211.995247,182.300306 C212.012327,185.019868 209.985549,185.996412 206.791667,185.996412 Z M209.604105,176.611369 C209.604105,175.4134 208.829831,174.964871 206.632258,174.964871 C206.222348,174.964871 205.738426,174.964871 205.379755,174.998936 L205.379755,178.479294 L207.560249,178.479294 C209.154343,178.479294 209.604105,177.724175 209.604105,176.849828 L209.604105,176.611369 Z M209.672424,182.039138 C209.672424,181.096659 209.177116,180.222311 207.560249,180.222311 L205.379755,180.222311 L205.379755,183.992226 C205.789665,183.992226 206.427303,184.026291 206.785974,184.026291 C208.983547,184.026291 209.666731,183.458533 209.666731,182.260563 L209.672424,182.039138 Z" id="Shape" fill="#FFFFFF" fill-rule="nonzero"/>
                    <path d="M217.571377,186 L215.428563,186 C215.314901,186 215.205894,185.963347 215.125523,185.898103 C215.045152,185.832859 215,185.74437 215,185.652102 L215,173.330705 C215.00185,173.240476 215.048292,173.154637 215.128887,173.092483 C215.209481,173.03033 215.317465,172.997078 215.428563,173.000202 L217.571377,173.000202 C217.682476,172.997078 217.790459,173.03033 217.871054,173.092483 C217.951648,173.154637 217.99809,173.240476 217.99994,173.330705 L217.99994,185.646303 C218.001856,185.739572 217.95755,185.829558 217.876971,185.896062 C217.796391,185.962565 217.686288,186.000013 217.571377,186 Z" id="Shape" fill="#FFFFFF" fill-rule="nonzero"/>
                    <path d="M227.6794,185.75894 C226.746339,185.91595 225.802896,185.99655 224.857739,186 C222.697405,186 221,185.391611 221,182.45298 L221,173.344371 C221,173.253038 221.034838,173.165446 221.096849,173.100864 C221.15886,173.036282 221.242966,173 221.330663,173 L222.98398,173 C223.166601,173 223.314644,173.15418 223.314644,173.344371 L223.314644,182.45298 C223.314644,183.600883 223.645307,183.939514 224.609742,183.939514 L227.668378,183.939514 C227.850999,183.939514 227.999042,184.093694 227.999042,184.283885 L227.999042,185.391611 C228.010064,185.638411 227.927398,185.707285 227.6794,185.75894 Z" id="Shape" fill="#FFFFFF" fill-rule="nonzero"/>
                    <path d="M233.571377,186 L231.428563,186 C231.314901,186 231.205894,185.963347 231.125523,185.898103 C231.045152,185.832859 231,185.74437 231,185.652102 L231,173.330705 C231.00185,173.240476 231.048292,173.154637 231.128887,173.092483 C231.209481,173.03033 231.317465,172.997078 231.428563,173.000202 L233.571377,173.000202 C233.682476,172.997078 233.790459,173.03033 233.871054,173.092483 C233.951648,173.154637 233.99809,173.240476 233.99994,173.330705 L233.99994,185.646303 C234.001856,185.739572 233.95755,185.829558 233.876971,185.896062 C233.796391,185.962565 233.686288,186.000013 233.571377,186 Z" id="Shape" fill="#FFFFFF" fill-rule="nonzero"/>
                    <path d="M244.655799,175.030726 L241.682132,175.030726 L241.682132,185.651953 C241.682132,185.744261 241.646462,185.832788 241.58297,185.898059 C241.519478,185.963331 241.433365,186 241.343574,186 L239.650784,186 C239.463803,186 239.312226,185.844174 239.312226,185.651953 L239.312226,175.030726 L236.338558,175.030726 C236.251888,175.037117 236.166483,175.006536 236.10243,174.946175 C236.038377,174.885814 236.001329,174.801 236,174.711683 L236,173.331097 C236.001461,173.24083 236.03815,173.154954 236.101818,173.092774 C236.165487,173.030594 236.250792,172.997327 236.338558,173.000453 L244.655799,173.000453 C244.74452,172.995718 244.831301,173.028265 244.896212,173.09062 C244.961124,173.152975 244.998588,173.239779 245,173.331097 L245,174.711683 C244.998781,174.802094 244.960963,174.887892 244.89564,174.94844 C244.830317,175.008988 244.743402,175.038808 244.655799,175.030726 Z" id="Shape" fill="#FFFFFF" fill-rule="nonzero"/>
                    <path d="M251.571377,186 L249.428563,186 C249.314901,186 249.205894,185.963347 249.125523,185.898103 C249.045152,185.832859 249,185.74437 249,185.652102 L249,173.330705 C249.00185,173.240476 249.048292,173.154637 249.128887,173.092483 C249.209481,173.03033 249.317465,172.997078 249.428563,173.000202 L251.571377,173.000202 C251.682476,172.997078 251.790459,173.03033 251.871054,173.092483 C251.951648,173.154637 251.99809,173.240476 251.99994,173.330705 L251.99994,185.646303 C252.001856,185.739572 251.95755,185.829558 251.876971,185.896062 C251.796391,185.962565 251.686288,186.000013 251.571377,186 Z" id="Shape" fill="#FFFFFF" fill-rule="nonzero"/>
                    <path d="M260.684921,185.755515 C259.691888,185.944069 258.683784,186.023908 257.675919,185.99382 C255.617404,185.99382 254,185.392383 254,182.487328 L254,176.512672 C254,173.601943 255.575394,173.00618 257.675919,173.00618 C258.683784,172.976092 259.691888,173.055931 260.684921,173.244485 C260.92123,173.278529 261,173.363638 261,173.601943 L261,174.697013 C261,174.88503 260.858934,175.037449 260.684921,175.037449 L257.455364,175.037449 C256.536384,175.037449 256.205551,175.377885 256.205551,176.506998 L256.205551,178.356702 L260.495874,178.356702 C260.669887,178.356702 260.810953,178.50912 260.810953,178.697138 L260.810953,179.928382 C260.810976,180.117339 260.670733,180.271395 260.495874,180.274492 L256.184546,180.274492 L256.184546,182.481654 C256.184546,183.616441 256.515379,183.951203 257.434359,183.951203 L260.663916,183.951203 C260.837929,183.951203 260.978995,184.103622 260.978995,184.291639 L260.978995,185.386709 C261,185.636362 260.910728,185.721471 260.684921,185.755515 Z" id="Shape" fill="#FFFFFF" fill-rule="nonzero"/>
                    <path d="M268.621285,185.998458 C267.630765,186.014052 266.641842,185.911322 265.674499,185.692345 C265.503539,185.671041 265.371354,185.528373 265.359364,185.35222 L265.359364,184.1221 C265.357881,184.035425 265.390427,183.951775 265.449687,183.889947 C265.508948,183.828118 265.589953,183.793299 265.674499,183.793312 L265.707671,183.793312 C266.371113,183.878343 268.040774,183.963375 268.654457,183.963375 C270.136144,183.963375 270.589496,183.396499 270.589496,182.427142 C270.589496,181.758228 270.274361,181.418103 269.174153,180.726515 L266.962681,179.377351 C265.414651,178.436337 265,177.444305 265,176.248197 C265,174.36617 266.067035,173 269.163096,173 C270.236761,173.006851 271.307818,173.109273 272.364202,173.306113 C272.527082,173.325107 272.653051,173.461442 272.662751,173.629232 L272.662751,174.893365 C272.665735,174.972515 272.637527,175.049566 272.584484,175.107152 C272.531441,175.164738 272.458027,175.198013 272.380788,175.199477 L272.347616,175.199477 C271.24188,175.09744 270.136144,175.029415 269.06358,175.029415 C267.830684,175.029415 267.316517,175.471578 267.316517,176.242529 C267.316517,176.809404 267.59848,177.14953 268.682101,177.761755 L270.683483,178.895507 C272.519005,179.938558 273,181.032628 273,182.381792 C272.994471,184.161781 271.955079,185.998458 268.621285,185.998458 Z" id="Shape" fill="#FFFFFF" fill-rule="nonzero"/>
                    <path d="M150.891697,204 L123.108303,204 C122.496204,204 122,204.447715 122,205 C122,205.552285 122.496204,206 123.108303,206 L150.891697,206 C151.503796,206 152,205.552285 152,205 C152,204.447715 151.503796,204 150.891697,204 Z" id="Shape" fill="#EE212D" fill-rule="nonzero"/>
                    <path d="M175.650454,4.90030927 C164.78785,1.92643811 153.60888,0.301615301 142.359428,0.0615795023 C128.582643,-0.347189599 114.820606,1.28083815 101.507071,4.89435025 C99.5079633,5.44853974 99.1199012,6.56883678 99.1199012,8.18969207 C99.1669391,18.9695716 99.1551796,29.9341809 99.1199012,40.5352896 L99.1199012,44.2954355 C99.1199012,45.3263472 99.1199012,46.3572588 99.0611039,47.3881704 C99.0081864,49.3427312 98.9552688,51.3568823 99.0611039,53.3471972 C99.5256025,60.2298732 102.000968,66.8265159 106.346088,72.9464364 C113.595794,83.076782 123.397302,91.29428 137.197026,98.7192274 C137.596666,98.9132774 138.035776,99.0092248 138.478807,98.9993016 C139.028235,99.0070482 139.571853,98.884615 140.066334,98.64176 C142.582858,97.306938 144.834794,95.9959521 146.957376,94.631335 C158.416968,87.2659778 166.360482,79.8112353 171.869788,71.1766055 C175.985598,64.7587336 177.943548,58.4600422 177.872991,51.9289489 L177.996465,8.01688029 C178.055263,6.24704933 177.384974,5.37703142 175.650454,4.90030927 Z M146.157733,93.3263081 C144.076309,94.6670891 141.859651,95.960198 139.378405,97.2711839 C138.920161,97.4670959 138.409209,97.4965666 137.931992,97.3546102 C133.014592,94.7363725 128.297612,91.7485 123.820643,88.41607 L123.820643,45.4216916 L155.136079,86.9382314 C152.454923,89.08944 149.46802,91.1870175 146.157733,93.3263081 Z M176.36778,51.9289489 C176.438337,58.1620909 174.556824,64.180708 170.611526,70.3304236 C169.183912,72.5490527 167.612528,74.6691699 165.907743,76.6767872 L165.854825,28.1643499 C164.06823,30.0604371 161.603398,31.1473037 159.0167,31.1796175 C156.552604,31.2110437 154.168193,30.2955155 152.343208,28.617236 L152.343208,61.3918834 L125.737434,26.0071822 C122.427147,21.1624934 117.59401,21.9133308 117.59401,21.9133308 C113.742787,21.9133308 110.250228,25.0120248 110.250228,28.9151873 L110.250228,75.4849818 C109.34083,74.3607121 108.46671,73.2145926 107.627869,72.0466234 C103.429743,66.1591049 101.077851,59.8365774 100.630992,53.2458938 C100.501638,51.3270872 100.554555,49.3486903 100.630992,47.4358426 C100.630992,46.3870539 100.683909,45.3442242 100.689789,44.2954355 L100.689789,40.5352896 C100.689789,29.9282219 100.689789,18.9636125 100.689789,8.17777402 C100.689789,6.9502145 100.87794,6.68205829 101.96569,6.39006597 C113.880869,3.13217139 126.173004,1.50679039 138.514085,1.55729523 C139.780187,1.55729523 141.048249,1.57318597 142.31827,1.60496745 C153.443895,1.83501286 164.500597,3.43584435 175.244752,6.37218889 C176.332502,6.67014023 176.520653,6.90850131 176.508894,7.98112613 L176.36778,51.9289489 Z" id="Shape" fill="#FFFFFF"/>
                    <path d="M158.999426,14.0000344 C154.926893,14.0000344 152.029694,16.820875 152.00031,20.7946318 C151.96505,24.92055 154.938646,27.9813376 158.993549,27.9988947 C160.846077,28.0320105 162.633746,27.3197915 163.952161,26.0233512 C165.270577,24.7269109 166.008333,22.9557971 165.998541,21.1106595 C166.074938,16.9613318 163.142479,13.9883297 158.999426,14.0000344 Z" id="Shape" fill="#FFFFFF"/>
                    <path d="M174.224741,19.5200342 L169.96081,19.004472 C169.897651,18.9985093 169.833933,18.9985093 169.770774,19.004472 C169.461813,19.0310726 169.193731,19.2009607 169.070387,19.4483182 C168.947043,19.6956756 168.987817,19.9816392 169.176912,20.1954207 C169.319989,20.3583749 169.535635,20.4613425 169.770774,20.4789799 L174.034705,20.994542 C174.095785,21.0018193 174.157723,21.0018193 174.218803,20.994542 C174.651643,20.9619165 174.987513,20.6527109 174.999661,20.2756736 C175.011809,19.8986363 174.696375,19.5736145 174.266312,19.5200342 L174.224741,19.5200342 Z" id="Shape" fill="#FFFFFF"/>
                    <path d="M162.639372,11.995044 C162.692418,12.001652 162.745922,12.001652 162.798968,11.995044 C163.143622,11.95925 163.423424,11.657158 163.478538,11.2613368 L163.993363,6.97243048 C164.019669,6.74612847 163.967124,6.51700391 163.847338,6.33567959 C163.727552,6.15435526 163.550385,6.03575575 163.35498,6.00608441 C163.300288,5.99797186 163.244927,5.99797186 163.190235,6.00608441 C162.845486,6.04619192 162.569065,6.35415268 162.520962,6.75172181 L162.006137,11.0346631 C161.954278,11.501803 162.23675,11.9302068 162.639372,11.995044 Z" id="Shape" fill="#FFFFFF"/>
                    <path d="M156.095358,11.9972819 C156.282623,11.9831828 156.461386,11.9254982 156.611304,11.8307921 C156.828078,11.6920028 156.965297,11.4837937 156.989664,11.2566895 C157.028077,11.0403834 156.958447,10.8203985 156.797044,10.6481408 L153.783923,7.32982782 C153.578584,7.10359083 153.24928,6.98024747 152.910255,7.00258934 C152.722465,7.01478684 152.543083,7.07267148 152.39431,7.16907909 C152.176241,7.30771814 152.036765,7.51557297 152.00907,7.74318168 C151.97309,7.9620451 152.045083,8.18372421 152.208569,8.35747146 L155.22857,11.6757844 C155.433245,11.8989291 155.759732,12.0200254 156.095358,11.9972819 Z" id="Shape" fill="#FFFFFF"/>
                    <path d="M171.813234,10.3829686 C171.53551,9.95957951 171.024482,9.87469346 170.65944,10.1913137 L167.330744,13.1961883 C167.14567,13.3591998 167.028116,13.6082662 167.007682,13.88067 C166.973448,14.177407 167.054786,14.4765149 167.228735,14.6935554 C167.402684,14.9105959 167.65037,15.0220209 167.901872,14.9963751 C168.060917,14.9808262 168.212967,14.9119874 168.340314,14.7978754 L171.66901,11.7930008 C171.849419,11.631802 171.966737,11.3904002 171.993946,11.1243892 C172.021155,10.8583782 171.955909,10.5906887 171.813234,10.3829686 Z" id="Shape" fill="#FFFFFF"/>
                </g>
            </g>
        </g>
    </g>
</svg>